<?xml version="1.0" encoding="UTF-8" standalone="no"?>
<svg
   width="7088.6299"
   height="2517"
   viewBox="0 0 7088.6299 2517"
   fill="none"
   version="1.1"
   id="svg32"
   sodipodi:docname="new_pyplet_logo.svg"
   inkscape:version="1.2.2 (b0a8486541, 2022-12-01)"
   xmlns:inkscape="http://www.inkscape.org/namespaces/inkscape"
   xmlns:sodipodi="http://sodipodi.sourceforge.net/DTD/sodipodi-0.dtd"
   xmlns="http://www.w3.org/2000/svg"
   xmlns:svg="http://www.w3.org/2000/svg">
  <defs
     id="defs36" />
  <sodipodi:namedview
     id="namedview34"
     pagecolor="#ffffff"
     bordercolor="#000000"
     borderopacity="0.25"
     inkscape:showpageshadow="2"
     inkscape:pageopacity="0.0"
     inkscape:pagecheckerboard="0"
     inkscape:deskcolor="#d1d1d1"
     showgrid="false"
     inkscape:zoom="0.093762416"
     inkscape:cx="3636.8517"
     inkscape:cy="1263.8326"
     inkscape:window-width="1920"
     inkscape:window-height="1131"
     inkscape:window-x="0"
     inkscape:window-y="0"
     inkscape:window-maximized="1"
     inkscape:current-layer="svg32" />
  <path
     d="M 1765.84,390.135 V 1648.41 l -1090.092,629.37 -0.803,-0.46 V 1019.04 L 1765.04,389.672 Z"
     fill="#2c5b81"
     id="path4" />
  <path
     d="M 1090.1,0 2180.19,629.367 1090.1,1258.73 818.299,1101.81 1636.6,629.367 1493.24,546.597 674.938,1019.04 0,629.367 Z"
     fill="#ffdb4f"
     id="path6" />
  <path
     d="m 1090.41,2516.67 0.03,-1257.75 -272.13,-157.11 -0.874,1258.79 272.614,156.32 z"
     fill="#efca3a"
     id="path8" />
  <path
     d="M 0.946777,1888.87 675.76,2277.79 674.947,1019.03 1.75124,630.185 0.946777,630.648 Z"
     fill="#3d79aa"
     id="path10" />
  <path
     d="m 2180.21,629.36 v 1258.27 l -1090.1,629.37 -0.8,-0.46 V 1258.26 l 1090.1,-629.363 z"
     fill="#3d79aa"
     id="path12" />
  <path
     d="m 1613.42,1216.47 c 36.45,0 66,-34.7 66,-77.5 0,-42.81 -29.55,-77.5 -66,-77.5 -36.45,0 -66,34.69 -66,77.5 0,42.8 29.55,77.5 66,77.5 z"
     fill="#ffffff"
     id="path14" />
  <path
     d="m 2031.92,975.466 c 36.73,0 66.5,-34.922 66.5,-78 0,-43.079 -29.77,-78 -66.5,-78 -36.72,0 -66.5,34.921 -66.5,78 0,43.078 29.78,78 66.5,78 z"
     fill="#ffffff"
     id="path16" />
  <path
     d="m 1822.92,1095.47 c 36.73,0 66.5,-34.7 66.5,-77.5 0,-42.807 -29.77,-77.504 -66.5,-77.504 -36.72,0 -66.5,34.697 -66.5,77.504 0,42.8 29.78,77.5 66.5,77.5 z"
     fill="#ffffff"
     id="path18" />
  <path
     d="M 2844,1895 V 621.5 h 160.5 l 16.5,105 c 8,-39 25,-68.5 51,-88.5 27,-20 65,-30 114,-30 h 105 c 76,0 131.5,15 166.5,45 35,30 52.5,83 52.5,159 v 517.5 c 0,81 -18.5,137 -55.5,168 -36,31 -97,46.5 -183,46.5 l -246,-3 v 354 z M 3025.5,776 v 616.5 l 283.5,3 c 13,0 19.5,-6.5 19.5,-19.5 V 776 c 0,-14 -6.5,-21 -19.5,-21 h -262.5 c -14,0 -21,7 -21,21 z"
     fill="#efca3a"
     id="path20" />
  <path
     d="m 7088.63,1120 h -214.5 v 603 c 0,13 6.5,19.5 19.5,19.5 h 195 v 153 h -139.5 c -90,0 -155.5,-17.5 -196.5,-52.5 -40,-35 -60,-93.5 -60,-175.5 V 1120 h -108 V 977.5 h 108 v -234 h 181.5 v 234 h 214.5 z"
     fill="#efca3a"
     id="path22" />
  <path
     d="m 6071.68,1906 c -91,0 -157,-17.5 -198,-52.5 -40,-35 -60,-94 -60,-177 V 1183 c 0,-83 17.5,-140 52.5,-171 35,-32 95,-48 180,-48 h 184.5 c 86,0 147,16 183,48 37,31 55.5,88 55.5,171 v 358.5 h -472.5 v 192 c 0,13 6.5,19.5 19.5,19.5 h 429 v 153 z m -55.5,-795 c -13,0 -19.5,7 -19.5,21 v 277.5 h 291 V 1132 c 0,-14 -6.5,-21 -19.5,-21 z"
     fill="#efca3a"
     id="path24" />
  <path
     d="m 5429.12,1895.5 v -1263 h 183 v 1263 z"
     fill="#efca3a"
     id="path26" />
  <path
     d="M 4564.69,2251 V 977.5 h 160.5 l 16.5,105 c 8,-39 25,-68.5 51,-88.5 27,-20 65,-30 114,-30 h 105 c 76,0 131.5,15 166.5,45 35,30 52.5,83 52.5,159 v 517.5 c 0,81 -18.5,137 -55.5,168 -36,31 -97,46.5 -183,46.5 l -246,-3 v 354 z m 181.5,-1119 v 616.5 l 283.5,3 c 13,0 19.5,-6.5 19.5,-19.5 v -600 c 0,-14 -6.5,-21 -19.5,-21 h -262.5 c -14,0 -21,7 -21,21 z"
     fill="#efca3a"
     id="path28" />
  <path
     d="m 4172.69,2092 v -279 c -21,64 -74.5,96 -160.5,96 h -106.5 c -75,0 -130,-14.5 -165,-43.5 -35,-30 -52.5,-83 -52.5,-159 v -729 h 181.5 V 1741 c 0,14 7,21 21,21 h 282 l -1.5,-784.5 h 181.5 l 1.5,1059 c 0,83 -20.5,142 -61.5,177 -40,35 -105,52.5 -195,52.5 h -379.5 v -153 h 435 c 13,0 19.5,-7 19.5,-21 z"
     fill="#efca3a"
     id="path30" />
</svg>
