<?xml version="1.0" encoding="UTF-8" standalone="no"?>
<svg
   width="2180.2134"
   height="2517"
   viewBox="0 0 2180.2134 2517"
   fill="none"
   version="1.1"
   id="svg20"
   sodipodi:docname="pyplet_logo_no_bg.svg"
   inkscape:version="1.2.2 (b0a8486541, 2022-12-01)"
   xmlns:inkscape="http://www.inkscape.org/namespaces/inkscape"
   xmlns:sodipodi="http://sodipodi.sourceforge.net/DTD/sodipodi-0.dtd"
   xmlns="http://www.w3.org/2000/svg"
   xmlns:svg="http://www.w3.org/2000/svg">
  <defs
     id="defs24" />
  <sodipodi:namedview
     id="namedview22"
     pagecolor="#ffffff"
     bordercolor="#000000"
     borderopacity="0.25"
     inkscape:showpageshadow="2"
     inkscape:pageopacity="0.0"
     inkscape:pagecheckerboard="0"
     inkscape:deskcolor="#d1d1d1"
     showgrid="false"
     inkscape:zoom="0.19766877"
     inkscape:cx="1269.801"
     inkscape:cy="1894.5835"
     inkscape:window-width="1920"
     inkscape:window-height="1131"
     inkscape:window-x="0"
     inkscape:window-y="0"
     inkscape:window-maximized="1"
     inkscape:current-layer="svg20" />
  <path
     d="M 1765.8438,390.13551 V 1648.4055 l -1090.09601,629.37 -0.803,-0.46 v -1258.28 L 1765.0438,389.67251 Z"
     fill="#2c5b81"
     id="path4" />
  <path
     d="M 1090.1,0 2180.19,629.367 1090.1,1258.73 818.299,1101.81 1636.6,629.367 1493.24,546.597 674.938,1019.04 0,629.367 Z"
     fill="#ffdb4f"
     id="path6" />
  <path
     d="m 1090.414,2516.6683 0.022,-1257.7522 -272.12626,-157.1085 -0.87378,1258.7885 272.61804,156.3255 z"
     fill="#efca3a"
     id="path8"
     sodipodi:nodetypes="cccccc" />
  <path
     d="M 0.9467667,1888.8746 675.76041,2277.7938 674.94676,1019.0346 1.7512267,630.18469 l -0.80446,0.463 z"
     fill="#3d79aa"
     id="path10"
     sodipodi:nodetypes="cccccc" />
  <path
     d="M 2180.2133,629.36016 V 1887.6301 l -1090.1,629.37 -0.8,-0.46 v -1258.28 l 1090.1,-629.36294 z"
     fill="#3d79aa"
     id="path12" />
  <ellipse
     cx="1613.4238"
     cy="1138.9655"
     rx="66"
     ry="77.5"
     fill="#ffffff"
     id="ellipse14" />
  <ellipse
     cx="2031.9238"
     cy="897.46552"
     rx="66.5"
     ry="78"
     fill="#ffffff"
     id="ellipse16" />
  <ellipse
     cx="1822.9238"
     cy="1017.9655"
     rx="66.5"
     ry="77.5"
     fill="#ffffff"
     id="ellipse18" />
</svg>
