<?xml version="1.0" encoding="UTF-8" standalone="no"?>
<svg
   width="7277.4272"
   height="2517"
   viewBox="0 0 7277.4272 2517"
   fill="none"
   version="1.1"
   id="svg24"
   sodipodi:docname="pyplet_logo_with _text_no_bg.svg"
   xml:space="preserve"
   inkscape:version="1.2.2 (b0a8486541, 2022-12-01)"
   xmlns:inkscape="http://www.inkscape.org/namespaces/inkscape"
   xmlns:sodipodi="http://sodipodi.sourceforge.net/DTD/sodipodi-0.dtd"
   xmlns="http://www.w3.org/2000/svg"
   xmlns:svg="http://www.w3.org/2000/svg"><defs
     id="defs28" /><sodipodi:namedview
     id="namedview26"
     pagecolor="#ffffff"
     bordercolor="#000000"
     borderopacity="0.25"
     inkscape:showpageshadow="2"
     inkscape:pageopacity="0.0"
     inkscape:pagecheckerboard="0"
     inkscape:deskcolor="#d1d1d1"
     showgrid="false"
     inkscape:zoom="0.20947904"
     inkscape:cx="2439.3849"
     inkscape:cy="1276.9774"
     inkscape:window-width="1920"
     inkscape:window-height="1131"
     inkscape:window-x="0"
     inkscape:window-y="0"
     inkscape:window-maximized="1"
     inkscape:current-layer="svg24" /><path
     d="M 2843.9675,1913.7506 V 724.25063 l 502.5,-7.5 c 93,-2 163,19 210,63 47,43 70.5,107 70.5,192 v 242.99997 c 0,80 -23.5,143.5 -70.5,190.5 -47,46 -117,69 -210,69 h -313.5 v 439.5 z m 565.5,-1031.99997 h -376.5 v 428.99997 h 376.5 c 16,0 24,-8 24,-24 V 905.75063 c 0,-16 -8,-24 -24,-24 z m 839.23,1228.49997 v -279 c -21,64 -74.5,96 -160.5,96 h -106.5 c -75,0 -130,-14.5 -165,-43.5 -35,-30 -52.5,-83 -52.5,-159 V 995.75063 h 181.5 v 763.49997 c 0,14 7,21 21,21 h 282 l -1.5,-784.49997 h 181.5 l 1.5,1058.99997 c 0,83 -20.5,142 -61.5,177 -40,35 -105,52.5 -195,52.5 h -379.5 v -153 h 435 c 13,0 19.5,-7 19.5,-21 z"
     fill="#efca3a"
     id="path20" /><path
     d="M 4667.6975,1913.7506 V 724.25063 l 502.5,-7.5 c 93,-2 163,19 210,63 47,43 70.5,107 70.5,192 v 242.99997 c 0,80 -23.5,143.5 -70.5,190.5 -47,46 -117,69 -210,69 h -313.5 v 439.5 z m 565.5,-1031.99997 h -376.5 v 428.99997 h 376.5 c 16,0 24,-8 24,-24 V 905.75063 c 0,-16 -8,-24 -24,-24 z m 384.73,1031.99997 V 650.75063 h 183 V 1913.7506 Z m 642.55,10.5 c -91,0 -157,-17.5 -198,-52.5 -40,-35 -60,-94 -60,-177 v -493.5 c 0,-83 17.5,-140 52.5,-171 35,-31.99997 95,-47.99997 180,-47.99997 h 184.5 c 86,0 147,16 183,47.99997 37,31 55.5,88 55.5,171 v 358.5 h -472.5 v 192 c 0,13 6.5,19.5 19.5,19.5 h 429 v 153 z m -55.5,-795 c -13,0 -19.5,7 -19.5,21 v 277.5 h 291 v -277.5 c 0,-14 -6.5,-21 -19.5,-21 z m 1072.45,9 h -214.5 v 603 c 0,13 6.5,19.5 19.5,19.5 h 195 v 153 h -139.5 c -90,0 -155.5,-17.5 -196.5,-52.5 -40,-35 -60,-93.5 -60,-175.5 v -547.5 h -108 V 995.75063 h 108 v -234 h 181.5 v 234 h 214.5 z"
     fill="#ffdb4f"
     id="path22" /><g
     style="fill:none"
     id="g303"><path
       d="M 1765.8438,390.13551 V 1648.4055 l -1090.09601,629.37 -0.803,-0.46 v -1258.28 L 1765.0438,389.67251 Z"
       fill="#2c5b81"
       id="path4" /><path
       d="M 1090.1,0 2180.19,629.367 1090.1,1258.73 818.299,1101.81 1636.6,629.367 1493.24,546.597 674.938,1019.04 0,629.367 Z"
       fill="#ffdb4f"
       id="path6" /><path
       d="m 1090.414,2516.6683 0.022,-1257.7522 -272.12626,-157.1085 -0.87378,1258.7885 272.61804,156.3255 z"
       fill="#efca3a"
       id="path8"
       sodipodi:nodetypes="cccccc" /><path
       d="M 0.9467667,1888.8746 675.76041,2277.7938 674.94676,1019.0346 1.7512267,630.18469 l -0.80446,0.463 z"
       fill="#3d79aa"
       id="path10"
       sodipodi:nodetypes="cccccc" /><path
       d="M 2180.2133,629.36016 V 1887.6301 l -1090.1,629.37 -0.8,-0.46 v -1258.28 l 1090.1,-629.36294 z"
       fill="#3d79aa"
       id="path12" /><ellipse
       cx="1613.4238"
       cy="1138.9655"
       rx="66"
       ry="77.5"
       fill="#ffffff"
       id="ellipse14" /><ellipse
       cx="2031.9238"
       cy="897.46552"
       rx="66.5"
       ry="78"
       fill="#ffffff"
       id="ellipse16" /><ellipse
       cx="1822.9238"
       cy="1017.9655"
       rx="66.5"
       ry="77.5"
       fill="#ffffff"
       id="ellipse18" /></g></svg>
